<svg xmlns="http://www.w3.org/2000/svg" viewBox="0 0 142.22 132.46"><defs><style>.cls-1{fill:#ababab;}.cls-2{fill:none;}</style></defs><g id="Layer_2" data-name="Layer 2"><g id="Logo"><path class="cls-1" d="M29.73,82.62,2.12,68.82a2.9,2.9,0,0,1,0-5.18l27.61-13.8a2.88,2.88,0,0,1,2.59,0l27.6,13.8a2.9,2.9,0,0,1,0,5.18l-27.6,13.8A2.88,2.88,0,0,1,29.73,82.62Z"/><path class="cls-1" d="M69.82,62.57,42.21,48.77a2.89,2.89,0,0,1,0-5.17L69.82,29.79a3,3,0,0,1,2.59,0L100,43.6a2.89,2.89,0,0,1,0,5.17l-27.6,13.8A2.88,2.88,0,0,1,69.82,62.57Z"/><path class="cls-1" d="M109.9,82.62,82.3,68.82a2.9,2.9,0,0,1,0-5.18l27.6-13.8a2.88,2.88,0,0,1,2.59,0l27.61,13.8a2.9,2.9,0,0,1,0,5.18l-27.61,13.8A2.88,2.88,0,0,1,109.9,82.62Z"/><path class="cls-1" d="M69.82,102.66,42.21,88.86a2.9,2.9,0,0,1,0-5.18l27.61-13.8a2.88,2.88,0,0,1,2.59,0L100,83.68a2.9,2.9,0,0,1,0,5.18l-27.6,13.8A2.88,2.88,0,0,1,69.82,102.66Z"/><rect class="cls-2" width="142.22" height="132.46"/></g></g></svg>