<svg xmlns="http://www.w3.org/2000/svg" viewBox="0 0 63.81 92.82"><defs><style>.cls-1{fill:#ababab;}</style></defs><g id="Layer_2" data-name="Layer 2"><g id="Logo"><path class="cls-1" d="M17.41,82.37a5.83,5.83,0,0,0,1,3.21l3.09,4.65a5.8,5.8,0,0,0,4.83,2.59H37.5a5.79,5.79,0,0,0,4.83-2.59l3.1-4.65a5.82,5.82,0,0,0,1-3.21v-7h-29ZM0,31.91a31.72,31.72,0,0,0,7.9,21c3,3.41,7.68,10.55,9.46,16.58,0,0,0,.09,0,.14H46.43c0-.05,0-.1,0-.14,1.79-6,6.47-13.17,9.47-16.58A31.9,31.9,0,1,0,0,31.91ZM31.91,17.4A14.53,14.53,0,0,0,17.4,31.91a2.9,2.9,0,1,1-5.8,0A20.33,20.33,0,0,1,31.91,11.6a2.9,2.9,0,1,1,0,5.8Z"/></g></g></svg>